DataType=double
version=3
OpenSimVersion=4.4-2022-10-11-798caa840
endheader
time	ground_force_r_vx	ground_force_r_vy	ground_force_r_vz	ground_force_r_px	ground_force_r_py	ground_force_r_pz	ground_force_l_vx	ground_force_l_vy	ground_force_l_vz	ground_force_l_px	ground_force_l_py	ground_force_l_pz	ground_torque_r_x	ground_torque_r_y	ground_torque_r_z	ground_torque_l_x	ground_torque_l_y	ground_torque_l_z
3.245	-0.05024717309545026	0.01770887402427547	0.002450536667972409	1.595255234733798	0	-0.4733874325167114	-35.30432461501766	544.0661320453999	45.39446128186177	1.821258027170445	0	-0.6022557227781086	0	2.615179774123622e-12	0	0	1.024421465209443	0
3.25	-0.07343248080892302	0.02557557107326151	0.003378012470087495	1.614439202579031	0	-0.4742637646643674	-33.23161932593601	537.566985542175	44.34543474324341	1.822051889461764	0	-0.6017179101523742	0	5.186523086009309e-12	0	0	1.054930584755354	0
3.255	-0.1098657120280723	0.037842801827493	0.004725458874108251	1.633778439516291	0	-0.4750847259272631	-31.18272851594465	531.4868511931179	43.3516493660866	1.82281450000877	0	-0.6011563748941527	0	1.069623296184874e-11	0	0	1.065783907546447	0
3.26	-0.166731014638213	0.05683048260699315	0.006641898804089123	1.6532871472588	0	-0.4758477694040835	-29.19631482621491	525.8397871428938	42.42992770952456	1.823546473893201	0	-0.6005694461029421	0	2.280800201481803e-11	0	0	1.056165740409725	0
3.265	-0.2545092250148889	0.0858945342072342	0.009296647730569665	1.672978296885381	0	-0.4765509139943242	-27.30655679243674	520.6046187541173	41.53905012438958	1.824247467390626	0	-0.5999572885402988	0	4.979485226930258e-11	0	0	1.025617226897779	0
3.27	-0.3872372027483949	0.1294649970151071	0.01282715914997539	1.692868256386186	0	-0.4771928506211436	-25.54463012700876	515.7607903853606	40.66936787391301	1.824918356827473	0	-0.5993198364162551	0	1.105354939523462e-10	0	0	0.9732639527112781	0
3.275	-0.5826270082741699	0.1930668749080865	0.01728410711973834	1.712971317247746	0	-0.4777723093649422	-23.92551160975222	511.2919797144733	39.75421420980844	1.82555929249946	0	-0.5986605827991529	0	2.470249109431943e-10	0	0	0.9003219759289607	0
3.28	-0.8600742681772673	0.2826190779087738	0.02251488762350501	1.733302460264835	0	-0.4782884217939183	-22.45597767724376	507.1767000688584	38.79549239629497	1.826169791819174	0	-0.5979849264831674	0	5.517526713294529e-10	0	0	0.8088830961786329	0
3.285	-1.237784874314978	0.4035303773572381	0.02808388664592074	1.753874469464072	0	-0.4787402696291718	-21.11014078614782	503.444428352929	37.76258238772574	1.826750525382035	0	-0.597299729893605	0	1.221039880316965e-09	0	0	0.7032773296388797	0
3.29	-1.728515690867138	0.5593227509006249	0.03320231365590114	1.774697712065616	0	-0.4791269017629662	-19.87879674386553	500.1136653552257	36.68635186251718	1.827302875035154	0	-0.596612890170454	0	2.664531963125771e-09	0	0	0.5886090659386838	0
3.295	-2.334953589066776	0.75027187780333	0.03674959222130925	1.795779340460089	0	-0.4794469177047795	-18.71983255764945	497.2081507146452	35.5851885531421	1.827827780654899	0	-0.5959336416223533	0	5.702336602908531e-09	0	0	0.4676130237427572	0
3.3	-3.04311201110986	0.9714577414438923	0.03737758866108842	1.817120430710784	0	-0.4796990267729322	-17.59357746193655	494.7368510155614	34.49133915007421	1.828324603877883	0	-0.5952735230082885	0	1.19185285668566e-08	0	0	0.3397397527174633	0
3.305	-3.821255197677242	1.212637935488116	0.03378712713000588	1.838718665751643	0	-0.4798817435770986	-16.47348064418319	492.6830722132428	33.48618725232664	1.828793246697188	0	-0.5946384516306298	0	2.420790254364924e-08	0	0	0.2038799203017234	0
3.31	-4.627007926445559	1.460527469541576	0.02498300429862257	1.860564550473117	0	-0.4799933916932995	-15.33575096059567	491.0137638406933	32.57540887467882	1.829236507178396	0	-0.5940271089397335	0	4.768484770933945e-08	0	0	0.06249803331069614	0
3.315	-5.414698947844927	1.701145755282967	0.01046643490580074	1.882644879437886	0	-0.4800317812271769	-14.20518679188817	489.7574249159575	31.78582747274679	1.829656028203617	0	-0.5934421553088255	0	9.099224302852593e-08	0	0	-0.08648232676914347	0
3.32	-6.148564829206122	1.923909567393324	-0.009982728542066376	1.904938070892561	0	-0.4799933296847806	-13.0941930196486	488.947721409795	31.17713566326199	1.830055697936138	0	-0.5928909191882219	0	1.686640052102339e-07	0	0	-0.2540106380123319	0
3.325	-6.808330498089438	2.123256422511876	-0.03623495711332629	1.927418064087265	0	-0.4798733577793478	-11.9813779303027	488.5858626539642	30.72516157794809	1.830439758682294	0	-0.5923803923909036	0	3.044532704832292e-07	0	0	-0.4438580374579644	0
3.33	-7.378510032838495	2.295110062305654	-0.06769546439741492	1.950054403998342	0	-0.479667334217678	-10.86603917249595	488.6720172484063	30.41547638236614	1.830811751707266	0	-0.5919141702404276	0	5.359947554961497e-07	0	0	-0.6508865526259555	0
3.335	-7.852969778875218	2.438331705414636	-0.1035835211893966	1.972815969440201	0	-0.4793700676726885	-9.74489968830753	489.1585554319378	30.24825643063318	1.831175386232901	0	-0.591489269117868	0	9.202730179014296e-07	0	0	-0.8661895386963891	0
3.34	-8.212151318036417	2.547462987813075	-0.1423854322472025	1.995673360178302	0	-0.4789777217938531	-8.648029015747497	490.0297119176735	30.15764718946588	1.831532905328196	0	-0.5910951586989912	0	1.538465902783948e-06	0	0	-1.074138456505914	0
3.345	-8.434632617397204	2.616400193338499	-0.1820909393935073	2.018599148667722	0	-0.4784862368622398	-7.550877505515574	491.3838792147776	30.12365952348079	1.831887111012416	0	-0.5907206888431794	0	2.496852632538626e-06	0	0	-1.266026619157032	0
3.35	-8.475837976988906	2.631531587599973	-0.219753971001793	2.04157288305202	0	-0.4778920146167943	-6.40847321339751	493.2697683475778	30.12185445004867	1.832240523231253	0	-0.5903585203956004	0	3.916827646222032e-06	0	0	-1.444559675026021	0
3.355	-8.284097452909714	2.576657214167722	-0.251076055272955	2.064578423618951	0	-0.4771910177027942	-5.212299267670079	495.700534796609	30.11580182001959	1.832593871017105	0	-0.5900047350517871	0	5.905203779299484e-06	0	0	-1.61227945614619	0
3.36	-7.791462779368416	2.429863603710833	-0.2702718277581894	2.087613901722688	0	-0.4763792572981183	-3.950512541932818	498.7054946091027	30.09769769946691	1.832947667146673	0	-0.5896563868938868	0	8.485264478053089e-06	0	0	-1.770864840313202	0
3.365	-6.947245522402351	2.17411504092299	-0.2710282020884112	2.110681881499318	0	-0.4754516450385499	-2.63231975105379	502.3058687834526	30.06238622086323	1.833301255186391	0	-0.5893110155772061	0	1.150074340872109e-05	0	0	-1.917890116531744	0
3.37	-5.712987323689941	1.795691484758714	-0.2468005749175904	2.133800847559341	0	-0.474401571682712	-1.262045780018965	506.5140249644115	30.00958498482134	1.833653794660759	0	-0.5889640522707064	0	1.443261641587146e-05	0	0	-2.045196620394677	0
3.375	-4.186409713401988	1.322947300386623	-0.1975542701134335	2.15698440637959	0	-0.4732182664982699	0.1380988091992883	511.2761575271987	29.93189530338348	1.834003103496916	0	-0.5886140928593666	0	1.646154951329137e-05	0	0	-2.146550715062638	0
3.38	-2.602669850981397	0.8277502300792631	-0.1325650064483002	2.180229394974246	0	-0.4718769039027795	1.563072828462538	516.5394599550953	29.85308643182177	1.834346703565195	0	-0.5882632871238799	0	1.676221105323394e-05	0	0	-2.21915673695564	0
3.385	-1.275737273894102	0.4088098785738145	-0.06942557306265552	2.203427102417823	0	-0.4703094757571837	3.022867662959577	522.1901319085068	29.81090022002382	1.834684472617666	0	-0.587910582035149	0	1.509832067791983e-05	0	0	-2.267345932868125	0
3.39	-0.4313139057006889	0.1394624326022571	-0.02483199779703806	2.225932628041256	0	-0.4682471593171803	4.533675524296124	528.1257560856284	29.78775990399752	1.835019826810663	0	-0.5875549912186926	0	1.208151474019897e-05	0	0	-2.307535753953637	0
3.395	-0.04381206027849688	0.01432948342804192	-0.002567049467062159	2.235830020523167	0	-0.4609591668073372	6.126621409152838	534.3176784937731	29.83139309930835	1.83535621641556	0	-0.5871964639535588	0	7.292736497322219e-06	0	0	-2.353198070011857	0
3.4	-0.009237078019936496	0.003062189950087378	-0.0005059682785091217	2.216568433510916	0	-0.454790456596568	7.836144219468197	540.7206262697696	29.98156349833448	1.83569786581399	0	-0.5868319129848	0	1.370118160468276e-06	0	0	-2.407634216629695	0
3.405	-0.005834675115367782	0.001959803527414391	-0.0003297512001245412	2.236592530586346	0	-0.4606065577616711	9.693006564899068	547.380373745995	30.25016786261095	1.836048611434313	0	-0.5864588527863159	0	7.274918051581843e-07	0	0	-2.471077404309284	0
3.41	-0.003045438847908771	0.001039582346956123	-0.0001753969656176147	2.254164623628051	0	-0.4575671151916657	11.70725626275233	554.345325901397	30.68195052502032	1.836410092819398	0	-0.5860770225433116	0	4.983351335574961e-07	0	0	-2.541988197652188	0
3.415	-0.001371558184609341	0.0004773922682546121	-7.885786693730766e-05	2.26614137232279	0	-0.445306576646261	13.91044661481616	561.7232371729515	31.27382161220003	1.836784471312512	0	-0.5856844699890912	0	4.929300199907826e-07	0	0	-2.61968680116145	0
3.42	-0.0006635803355792716	0.0002364509585971558	-3.438563244654623e-05	2.242737017885389	0	-0.4195427050014112	16.29357029684272	569.6052795084147	32.00329103284951	1.837173753477768	0	-0.5852776419871404	0	5.718482214170329e-07	0	0	-2.705363021088921	0
3.425	-0.0007822206882331102	0.0002854202251750667	-3.128827318663519e-05	2.17662792519964	0	-0.403462201695323	18.8810084574086	578.051010058547	32.80255903714297	1.837580399189952	0	-0.5848523119188186	0	3.661596968203729e-07	0	0	-2.798496115977031	0
3.43	-0.001997430816171539	0.0007452383943322176	-7.236764331349791e-05	2.164602434586867	0	-0.4102402909240445	21.67133438484081	587.0920257662598	33.60335475629766	1.838007938709761	0	-0.5844011868105419	0	2.970395807643802e-07	0	0	-2.896381123697218	0
3.435	-0.005203631413361728	0.001990171953537683	-0.0001821755265974313	2.170909313742735	0	-0.4133925860513131	24.66991478760234	596.746759158532	34.30148530763823	1.838457732050819	0	-0.5839217206149384	0	3.006956133097993e-07	0	0	-2.995736470942781	0
3.44	-0.01201889267731385	0.004723198676054946	-0.000412162225101046	2.181788857738688	0	-0.4142889122631334	27.88007031468916	607.0348849424381	34.85860747109695	1.838930288451424	0	-0.5834137808578947	0	2.731160057510822e-07	0	0	-3.094481714585953	0
